<svg width="130" height="65" viewBox="0 0 130 65" fill="none" xmlns="http://www.w3.org/2000/svg">
<path d="M12.0109 12.7174L30.9239 30.5217L52.9891 12.7174" stroke="white" stroke-width="2"/>
<path d="M12.0109 50.3044L30.9239 32.5L52.9891 50.3044" stroke="white" stroke-width="2"/>
<path d="M15.163 15.2609L31.1664 50.8696L49.837 15.2609" stroke="white" stroke-width="2"/>
<path d="M15.163 48.3261L31.1664 12.7174L49.837 48.3261" stroke="white" stroke-width="2"/>
<path d="M64.41 47.48C64.29 47.48 64.13 47.21 63.93 46.67L57.06 30.38C56.82 29.86 56.53 29.44 56.19 29.12C55.87 28.8 55.46 28.57 54.96 28.43C54.62 28.31 54.37 28.21 54.21 28.13C54.07 28.03 54 27.91 54 27.77C54 27.53 54.28 27.41 54.84 27.41L56.37 27.44C57.09 27.48 57.63 27.5 57.99 27.5C58.41 27.5 59 27.48 59.76 27.44L61.08 27.41C61.66 27.41 61.95 27.53 61.95 27.77C61.95 27.93 61.88 28.05 61.74 28.13C61.6 28.21 61.35 28.3 60.99 28.4C60.73 28.46 60.56 28.57 60.48 28.73C60.4 28.87 60.36 29.08 60.36 29.36C60.36 29.58 60.38 29.81 60.42 30.05C60.48 30.27 60.53 30.42 60.57 30.5C61.91 33.88 63.52 37.72 65.4 42.02C65.52 42.24 65.61 42.35 65.67 42.35C65.75 42.35 65.82 42.25 65.88 42.05L67.98 37.22C68.1 36.94 68.16 36.72 68.16 36.56C68.16 36.44 68.09 36.19 67.95 35.81L65.76 30.71C65.54 30.15 65.18 29.67 64.68 29.27C64.18 28.87 63.64 28.59 63.06 28.43C62.74 28.31 62.51 28.21 62.37 28.13C62.23 28.03 62.16 27.91 62.16 27.77C62.16 27.53 62.42 27.41 62.94 27.41L64.56 27.44C65.32 27.48 65.89 27.5 66.27 27.5C66.61 27.5 67.12 27.48 67.8 27.44L69.03 27.41C69.31 27.41 69.53 27.44 69.69 27.5C69.87 27.56 69.96 27.65 69.96 27.77C69.96 27.87 69.91 27.96 69.81 28.04C69.71 28.12 69.57 28.21 69.39 28.31C69.35 28.33 69.25 28.39 69.09 28.49C68.93 28.59 68.82 28.71 68.76 28.85C68.62 28.91 68.55 29.01 68.55 29.15C68.55 29.19 68.57 29.27 68.61 29.39C69.29 31.19 69.75 32.36 69.99 32.9C70.11 33.14 70.2 33.26 70.26 33.26C70.32 33.26 70.41 33.14 70.53 32.9C70.79 32.32 71.11 31.47 71.49 30.35L71.79 29.51L71.85 29.15C71.85 28.97 71.79 28.83 71.67 28.73C71.57 28.61 71.4 28.49 71.16 28.37C71.12 28.35 71.04 28.31 70.92 28.25C70.82 28.17 70.74 28.1 70.68 28.04C70.64 27.96 70.62 27.88 70.62 27.8C70.62 27.56 70.89 27.44 71.43 27.44C71.77 27.44 72.07 27.45 72.33 27.47C72.59 27.49 72.83 27.5 73.05 27.5C73.27 27.5 73.54 27.48 73.86 27.44C74.3 27.4 74.67 27.38 74.97 27.38C75.23 27.38 75.44 27.42 75.6 27.5C75.76 27.56 75.84 27.65 75.84 27.77C75.84 27.91 75.76 28.03 75.6 28.13C75.46 28.21 75.23 28.29 74.91 28.37C74.33 28.51 73.91 28.69 73.65 28.91C73.41 29.13 73.14 29.48 72.84 29.96C72.48 30.62 71.9 31.91 71.1 33.83C70.98 34.15 70.92 34.43 70.92 34.67C70.92 34.83 70.95 34.97 71.01 35.09L73.8 42.11C73.86 42.21 73.91 42.26 73.95 42.26C74.01 42.26 74.08 42.17 74.16 41.99C75.14 39.55 76.43 35.82 78.03 30.8C78.19 30.34 78.27 29.93 78.27 29.57C78.23 28.95 77.93 28.57 77.37 28.43C76.73 28.23 76.41 28.02 76.41 27.8C76.41 27.68 76.49 27.59 76.65 27.53C76.81 27.47 77.02 27.44 77.28 27.44L78.51 27.47C78.71 27.49 79.01 27.5 79.41 27.5C79.63 27.5 79.98 27.48 80.46 27.44C81.14 27.4 81.65 27.38 81.99 27.38C82.61 27.38 82.92 27.51 82.92 27.77C82.92 27.91 82.84 28.03 82.68 28.13C82.52 28.21 82.28 28.29 81.96 28.37C81.34 28.51 80.84 28.8 80.46 29.24C80.1 29.68 79.8 30.2 79.56 30.8L73.68 46.73C73.52 47.17 73.34 47.39 73.14 47.39C72.96 47.39 72.77 47.2 72.57 46.82C72.09 45.76 71.36 44.05 70.38 41.69L68.97 38.24C68.91 38.12 68.86 38.06 68.82 38.06C68.76 38.06 68.69 38.16 68.61 38.36C67.13 41.7 65.95 44.46 65.07 46.64C64.87 47.2 64.65 47.48 64.41 47.48ZM85.2038 47.12C84.6438 47.12 84.3638 47 84.3638 46.76C84.3638 46.62 84.4338 46.52 84.5738 46.46C84.7138 46.38 84.9638 46.3 85.3238 46.22C85.8238 46.12 86.2338 45.87 86.5538 45.47C86.8738 45.07 87.0838 44.54 87.1838 43.88C87.8638 38.48 88.2638 34.27 88.3838 31.25C88.3838 30.83 88.3738 30.5 88.3538 30.26C88.3538 29.78 88.1738 29.41 87.8138 29.15C87.5338 28.91 87.2438 28.74 86.9438 28.64C86.6438 28.52 86.2538 28.41 85.7738 28.31C85.5538 28.27 85.3738 28.2 85.2338 28.1C85.1138 27.98 85.0538 27.85 85.0538 27.71C85.0538 27.55 85.1338 27.45 85.2938 27.41C85.4538 27.35 85.6938 27.32 86.0138 27.32C86.3138 27.32 86.6538 27.33 87.0338 27.35C87.4138 27.37 87.8038 27.39 88.2038 27.41C89.5638 27.49 90.4738 27.53 90.9338 27.53C91.0738 27.53 91.2038 27.58 91.3238 27.68C91.4438 27.78 91.5238 27.9 91.5638 28.04C91.7038 28.48 91.7838 28.77 91.8038 28.91C92.0638 29.75 92.2138 30.22 92.2538 30.32L96.8738 41.81C96.9338 41.97 97.0438 42.05 97.2038 42.05C97.3038 42.05 97.3838 41.99 97.4438 41.87L102.784 30.38L103.354 27.95C103.414 27.69 103.534 27.56 103.714 27.56H104.854C105.214 27.56 106.024 27.51 107.284 27.41C108.084 27.33 108.574 27.29 108.754 27.29C109.214 27.29 109.444 27.41 109.444 27.65C109.444 27.79 109.384 27.9 109.264 27.98C109.164 28.06 108.974 28.16 108.694 28.28C108.374 28.38 107.894 28.57 107.254 28.85C106.914 29.01 106.664 29.2 106.504 29.42C106.344 29.62 106.264 29.89 106.264 30.23C106.264 32.13 106.294 33.84 106.354 35.36C106.434 36.86 106.554 38.62 106.714 40.64L106.954 44.12C106.974 44.7 107.164 45.16 107.524 45.5C107.904 45.82 108.454 46.05 109.174 46.19C109.474 46.25 109.694 46.33 109.834 46.43C109.974 46.51 110.044 46.62 110.044 46.76C110.044 47 109.784 47.12 109.264 47.12C108.524 47.12 107.834 47.09 107.194 47.03C106.394 46.99 105.784 46.97 105.364 46.97C105.004 46.97 104.484 46.99 103.804 47.03C103.244 47.09 102.584 47.12 101.824 47.12C101.304 47.12 101.044 47 101.044 46.76C101.044 46.48 101.334 46.29 101.914 46.19C102.554 46.09 102.994 45.89 103.234 45.59C103.474 45.29 103.594 44.8 103.594 44.12C103.554 41 103.434 37.55 103.234 33.77L103.204 33.14C103.204 32.96 103.164 32.87 103.084 32.87C103.024 32.87 102.924 32.97 102.784 33.17L96.3038 47.09C96.2438 47.25 96.1438 47.33 96.0038 47.33C95.8438 47.33 95.7338 47.25 95.6738 47.09C94.6538 44.35 93.1738 40.67 91.2338 36.05L89.9738 33.05C89.9338 32.95 89.8538 32.9 89.7338 32.9C89.6138 32.9 89.5438 32.98 89.5238 33.14C89.0638 37 88.8338 40.59 88.8338 43.91C88.8338 44.47 89.0138 44.96 89.3738 45.38C89.7338 45.78 90.2338 46.05 90.8738 46.19C91.1938 46.25 91.4338 46.33 91.5938 46.43C91.7538 46.51 91.8338 46.62 91.8338 46.76C91.8338 47 91.5538 47.12 90.9938 47.12C90.3738 47.12 89.8038 47.1 89.2838 47.06C88.8038 47.02 88.4038 47 88.0838 47C87.7038 47 87.2138 47.02 86.6138 47.06C86.0538 47.1 85.5838 47.12 85.2038 47.12ZM113.711 47.15C113.471 47.15 113.281 47.11 113.141 47.03C113.021 46.95 112.961 46.86 112.961 46.76C112.961 46.54 113.171 46.36 113.591 46.22C114.391 46.04 114.961 45.8 115.301 45.5C115.661 45.2 115.841 44.74 115.841 44.12V30.29C115.841 29.81 115.791 29.46 115.691 29.24C115.591 29 115.421 28.82 115.181 28.7C114.941 28.58 114.541 28.47 113.981 28.37C113.401 28.25 113.111 28.05 113.111 27.77C113.111 27.51 113.371 27.38 113.891 27.38C114.431 27.38 115.101 27.4 115.901 27.44C116.621 27.48 117.181 27.5 117.581 27.5L119.501 27.47C120.381 27.43 121.081 27.41 121.601 27.41C122.101 27.41 122.351 27.53 122.351 27.77C122.351 28.05 122.061 28.25 121.481 28.37C120.581 28.57 119.941 28.78 119.561 29C119.201 29.22 119.021 29.6 119.021 30.14V44.03C119.021 44.65 119.161 45.1 119.441 45.38C119.741 45.64 120.291 45.77 121.091 45.77H124.571C125.051 45.77 125.481 45.7 125.861 45.56C126.261 45.4 126.591 45.21 126.851 44.99C127.211 44.65 127.501 44.33 127.721 44.03C127.941 43.71 128.171 43.29 128.411 42.77C128.571 42.45 128.701 42.22 128.801 42.08C128.901 41.92 129.011 41.84 129.131 41.84C129.251 41.84 129.341 41.9 129.401 42.02C129.481 42.14 129.521 42.27 129.521 42.41C129.521 42.47 129.511 42.53 129.491 42.59C129.471 42.63 129.461 42.68 129.461 42.74C129.181 43.74 128.981 44.49 128.861 44.99C128.761 45.47 128.681 46.01 128.621 46.61C128.581 46.97 128.431 47.15 128.171 47.15C127.131 47.15 125.411 47.13 123.011 47.09C121.251 47.03 119.531 47 117.851 47C116.911 47 115.841 47.04 114.641 47.12L113.711 47.15Z" fill="white"/>
</svg>
